ffmpeg started on 2016-12-05 at 18:28:02
Report written to "Output/x264/results/ffmpeg/sintelfaster8000k.log"
Command line:
Tools/ffmpeg/ffmpeg -benchmark -y -i Input/y4m/sintel.y4m -c:v libx264 -preset faster -b:v 8000k -an Output/x264/encoded/sintelfaster8000k.mkv
ffmpeg version N-82227-gdb23fde Copyright (c) 2000-2016 the FFmpeg developers
  built with gcc 5.4.0 (Ubuntu 5.4.0-6ubuntu1~16.04.2) 20160609
  configuration: --prefix=/home/jaroslav/ffmpeg_build --pkg-config-flags=--static --extra-cflags=-I/home/jaroslav/ffmpeg_build/include --extra-ldflags=-L/home/jaroslav/ffmpeg_build/lib --bindir=/home/jaroslav/bin --enable-gpl --enable-libass --enable-libfdk-aac --enable-libfreetype --enable-libmp3lame --enable-libopus --enable-libtheora --enable-libvorbis --enable-libvpx --enable-libx264 --enable-libx265 --enable-nvenc --enable-libmfx --enable-libxvid --enable-libgsm --enable-libopencore-amrnb --enable-version3 --enable-nonfree
  libavutil      55. 35.100 / 55. 35.100
  libavcodec     57. 66.101 / 57. 66.101
  libavformat    57. 57.100 / 57. 57.100
  libavdevice    57.  2.100 / 57.  2.100
  libavfilter     6. 66.100 /  6. 66.100
  libswscale      4.  3.100 /  4.  3.100
  libswresample   2.  4.100 /  2.  4.100
  libpostproc    54.  2.100 / 54.  2.100
Input #0, yuv4mpegpipe, from 'Input/y4m/sintel.y4m':
  Duration: 00:00:20.83, start: 0.000000, bitrate: 2057307 kb/s
    Stream #0:0: Video: rawvideo (I420 / 0x30323449), yuv420p(progressive), 4096x1744, SAR 1:1 DAR 256:109, 24 fps, 24 tbr, 24 tbn, 24 tbc
[libx264 @ 0x340c1c0] using SAR=1/1
[libx264 @ 0x340c1c0] using cpu capabilities: MMX2 SSE2Fast SSSE3 SSE4.2 AVX FMA3 AVX2 LZCNT BMI2
[libx264 @ 0x340c1c0] profile High, level 5.1
[libx264 @ 0x340c1c0] 264 - core 148 - H.264/MPEG-4 AVC codec - Copyleft 2003-2016 - http://www.videolan.org/x264.html - options: cabac=1 ref=2 deblock=1:0:0 analyse=0x3:0x113 me=hex subme=4 psy=1 psy_rd=1.00:0.00 mixed_ref=0 me_range=16 chroma_me=1 trellis=1 8x8dct=1 cqm=0 deadzone=21,11 fast_pskip=1 chroma_qp_offset=0 threads=6 lookahead_threads=1 sliced_threads=0 nr=0 decimate=1 interlaced=0 bluray_compat=0 constrained_intra=0 bframes=3 b_pyramid=2 b_adapt=1 b_bias=0 direct=1 weightb=1 open_gop=0 weightp=1 keyint=250 keyint_min=24 scenecut=40 intra_refresh=0 rc_lookahead=20 rc=abr mbtree=1 bitrate=8000 ratetol=1.0 qcomp=0.60 qpmin=0 qpmax=69 qpstep=4 ip_ratio=1.40 aq=1:1.00
Output #0, matroska, to 'Output/x264/encoded/sintelfaster8000k.mkv':
  Metadata:
    encoder         : Lavf57.57.100
    Stream #0:0: Video: h264 (libx264) (H264 / 0x34363248), yuv420p, 4096x1744 [SAR 1:1 DAR 256:109], q=-1--1, 8000 kb/s, 24 fps, 1k tbn, 24 tbc
    Metadata:
      encoder         : Lavc57.66.101 libx264
    Side data:
      cpb: bitrate max/min/avg: 0/0/8000000 buffer size: 0 vbv_delay: -1
Stream mapping:
  Stream #0:0 -> #0:0 (rawvideo (native) -> h264 (libx264))
Press [q] to stop, [?] for help
frame=   10 fps=0.0 q=0.0 size=       0kB time=00:00:00.00 bitrate=N/A speed=   0x    frame=   19 fps= 17 q=0.0 size=       0kB time=00:00:00.00 bitrate=N/A speed=   0x    frame=   27 fps= 10 q=0.0 size=       0kB time=00:00:00.00 bitrate=N/A speed=   0x    frame=   33 fps= 10 q=27.0 size=       1kB time=00:00:00.00 bitrate=5864.0kbits/s speed=0.000316x    frame=   35 fps=9.5 q=30.0 size=       1kB time=00:00:00.08 bitrate=  69.8kbits/s speed=0.0227x    frame=   41 fps=9.2 q=45.0 size=       1kB time=00:00:00.33 bitrate=  17.6kbits/s speed=0.0751x    frame=   48 fps=5.5 q=45.0 size=       1kB time=00:00:00.62 bitrate=   9.4kbits/s speed=0.072x    frame=   49 fps=4.1 q=45.0 size=       1kB time=00:00:00.66 bitrate=   8.8kbits/s speed=0.0554x    frame=   53 fps=4.2 q=44.0 size=       1kB time=00:00:00.83 bitrate=   7.0kbits/s speed=0.0664x    frame=   60 fps=4.6 q=44.0 size=       1kB time=00:00:01.12 bitrate=   5.2kbits/s speed=0.0862x    frame=   68 fps=5.0 q=43.0 size=       1kB time=00:00:01.45 bitrate=   4.0kbits/s speed=0.107x    frame=   75 fps=5.3 q=42.0 size=       1kB time=00:00:01.75 bitrate=   3.3kbits/s speed=0.124x    frame=   82 fps=5.6 q=42.0 size=       1kB time=00:00:02.04 bitrate=   2.9kbits/s speed=0.14x    frame=   89 fps=5.9 q=42.0 size=       1kB time=00:00:02.33 bitrate=   2.5kbits/s speed=0.154x    frame=   96 fps=6.1 q=42.0 size=       1kB time=00:00:02.62 bitrate=   2.2kbits/s speed=0.168x    frame=  103 fps=6.4 q=41.0 size=       1kB time=00:00:02.91 bitrate=   2.0kbits/s speed=0.181x    frame=  110 fps=6.6 q=41.0 size=       1kB time=00:00:03.20 bitrate=   1.8kbits/s speed=0.192x    frame=  117 fps=6.8 q=41.0 size=       1kB time=00:00:03.50 bitrate=   1.7kbits/s speed=0.203x    frame=  124 fps=7.0 q=40.0 size=       1kB time=00:00:03.79 bitrate=   1.5kbits/s speed=0.213x    frame=  131 fps=7.2 q=40.0 size=    4396kB time=00:00:04.08 bitrate=8817.6kbits/s speed=0.223x    frame=  137 fps=7.3 q=40.0 size=    4396kB time=00:00:04.33 bitrate=8309.0kbits/s speed=0.23x    frame=  145 fps=7.5 q=40.0 size=    4396kB time=00:00:04.66 bitrate=7714.5kbits/s speed=0.241x    frame=  152 fps=7.6 q=40.0 size=    4396kB time=00:00:04.95 bitrate=7261.8kbits/s speed=0.249x    frame=  160 fps=7.8 q=40.0 size=    4396kB time=00:00:05.29 bitrate=6803.6kbits/s speed=0.259x    frame=  168 fps=8.0 q=40.0 size=    4396kB time=00:00:05.62 bitrate=6400.9kbits/s speed=0.268x    frame=  175 fps=8.1 q=40.0 size=    4396kB time=00:00:05.91 bitrate=6085.0kbits/s speed=0.276x    frame=  183 fps=8.3 q=40.0 size=    4396kB time=00:00:06.25 bitrate=5760.9kbits/s speed=0.284x    frame=  190 fps=8.4 q=39.0 size=    6549kB time=00:00:06.54 bitrate=8199.0kbits/s speed=0.29x    frame=  197 fps=8.6 q=39.0 size=    6549kB time=00:00:06.83 bitrate=7849.9kbits/s speed=0.297x    frame=  205 fps=8.7 q=39.0 size=    6549kB time=00:00:07.16 bitrate=7484.1kbits/s speed=0.304x    frame=  209 fps=8.7 q=36.0 size=    6549kB time=00:00:07.33 bitrate=7314.7kbits/s speed=0.304x    frame=  218 fps=8.8 q=39.0 size=    7437kB time=00:00:07.70 bitrate=7902.8kbits/s speed=0.312x    frame=  224 fps=8.8 q=38.0 size=    7437kB time=00:00:07.95 bitrate=7654.6kbits/s speed=0.314x    frame=  233 fps=9.0 q=38.0 size=    7437kB time=00:00:08.33 bitrate=7310.2kbits/s speed=0.322x    frame=  240 fps=9.1 q=38.0 size=    7437kB time=00:00:08.62 bitrate=7062.7kbits/s speed=0.327x    frame=  249 fps=9.2 q=38.0 size=    7437kB time=00:00:09.00 bitrate=6768.5kbits/s speed=0.333x    frame=  256 fps=9.3 q=38.0 size=    7437kB time=00:00:09.29 bitrate=6555.8kbits/s speed=0.337x    frame=  265 fps=9.4 q=38.0 size=    7437kB time=00:00:09.66 bitrate=6301.5kbits/s speed=0.343x    frame=  273 fps=9.5 q=38.0 size=    7437kB time=00:00:10.00 bitrate=6091.7kbits/s speed=0.348x    frame=  281 fps=9.6 q=37.0 size=    7437kB time=00:00:10.33 bitrate=5895.4kbits/s speed=0.354x    frame=  288 fps=9.7 q=37.0 size=    7437kB time=00:00:10.62 bitrate=5733.4kbits/s speed=0.357x    frame=  295 fps=9.7 q=37.0 size=    7437kB time=00:00:10.91 bitrate=5580.0kbits/s speed=0.36x    frame=  303 fps=9.8 q=37.0 size=    9961kB time=00:00:11.25 bitrate=7252.7kbits/s speed=0.365x    frame=  311 fps=9.9 q=37.0 size=    9961kB time=00:00:11.58 bitrate=7044.2kbits/s speed=0.369x    frame=  318 fps=9.9 q=36.0 size=    9961kB time=00:00:11.87 bitrate=6871.0kbits/s speed=0.37x    frame=  328 fps= 10 q=36.0 size=    9961kB time=00:00:12.29 bitrate=6637.9kbits/s speed=0.377x    frame=  338 fps= 10 q=36.0 size=    9961kB time=00:00:12.70 bitrate=6420.6kbits/s speed=0.384x    frame=  349 fps= 10 q=35.0 size=    9961kB time=00:00:13.16 bitrate=6196.8kbits/s speed=0.391x    frame=  359 fps= 10 q=35.0 size=    9961kB time=00:00:13.58 bitrate=6007.0kbits/s speed=0.397x    frame=  369 fps= 11 q=34.0 size=    9961kB time=00:00:14.00 bitrate=5828.1kbits/s speed=0.403x    frame=  377 fps= 11 q=34.0 size=    9961kB time=00:00:14.33 bitrate=5692.7kbits/s speed=0.406x    frame=  387 fps= 11 q=33.0 size=    9961kB time=00:00:14.75 bitrate=5531.8kbits/s speed=0.412x    frame=  396 fps= 11 q=33.0 size=   12178kB time=00:00:15.12 bitrate=6595.4kbits/s speed=0.417x    frame=  400 fps= 11 q=33.0 size=   12178kB time=00:00:15.29 bitrate=6523.3kbits/s speed=0.415x    frame=  408 fps= 11 q=33.0 size=   12178kB time=00:00:15.62 bitrate=6384.3kbits/s speed=0.418x    frame=  414 fps= 11 q=33.0 size=   12178kB time=00:00:15.87 bitrate=6283.8kbits/s speed=0.419x    frame=  421 fps= 11 q=33.0 size=   12178kB time=00:00:16.16 bitrate=6170.3kbits/s speed=0.42x    frame=  428 fps= 11 q=33.0 size=   12178kB time=00:00:16.45 bitrate=6061.2kbits/s speed=0.421x    frame=  434 fps= 11 q=33.0 size=   12178kB time=00:00:16.70 bitrate=5970.5kbits/s speed=0.422x    frame=  442 fps= 11 q=33.0 size=   12178kB time=00:00:17.04 bitrate=5853.5kbits/s speed=0.424x    frame=  452 fps= 11 q=33.0 size=   14399kB time=00:00:17.45 bitrate=6756.2kbits/s speed=0.429x    frame=  459 fps= 11 q=33.0 size=   14399kB time=00:00:17.75 bitrate=6645.0kbits/s speed=0.43x    frame=  467 fps= 11 q=33.0 size=   14399kB time=00:00:18.08 bitrate=6522.7kbits/s speed=0.431x    frame=  473 fps= 11 q=33.0 size=   14399kB time=00:00:18.33 bitrate=6433.7kbits/s speed=0.432x    frame=  480 fps= 11 q=33.0 size=   14399kB time=00:00:18.62 bitrate=6332.9kbits/s speed=0.433x    frame=  487 fps= 11 q=33.0 size=   14399kB time=00:00:18.91 bitrate=6235.1kbits/s speed=0.434x    frame=  494 fps= 11 q=33.0 size=   14399kB time=00:00:19.20 bitrate=6140.6kbits/s speed=0.435x    frame=  500 fps= 11 q=-1.0 Lsize=   17408kB time=00:00:20.70 bitrate=6886.0kbits/s speed=0.452x    
video:17403kB audio:0kB subtitle:0kB other streams:0kB global headers:0kB muxing overhead: 0.027783%
bench: utime=130.752s
bench: maxrss=1118900kB
[libx264 @ 0x340c1c0] frame I:8     Avg QP:27.79  size:112156
[libx264 @ 0x340c1c0] frame P:269   Avg QP:33.19  size: 41625
[libx264 @ 0x340c1c0] frame B:223   Avg QP:31.13  size: 25674
[libx264 @ 0x340c1c0] consecutive B-frames: 37.0%  8.4%  6.6% 48.0%
[libx264 @ 0x340c1c0] mb I  I16..4: 39.9% 54.5%  5.6%
[libx264 @ 0x340c1c0] mb P  I16..4: 29.0% 29.0%  0.3%  P16..4:  9.3%  1.7%  0.3%  0.0%  0.0%    skip:30.4%
[libx264 @ 0x340c1c0] mb B  I16..4:  6.1%  5.7%  0.3%  B16..8: 16.5%  1.6%  0.0%  direct: 6.9%  skip:62.8%  L0:42.5% L1:53.4% BI: 4.1%
[libx264 @ 0x340c1c0] final ratefactor: 30.29
[libx264 @ 0x340c1c0] 8x8 transform intra:49.6% inter:82.1%
[libx264 @ 0x340c1c0] coded y,uvDC,uvAC intra: 17.2% 18.5% 0.8% inter: 3.9% 3.1% 0.0%
[libx264 @ 0x340c1c0] i16 v,h,dc,p: 48% 26% 13% 14%
[libx264 @ 0x340c1c0] i8 v,h,dc,ddl,ddr,vr,hd,vl,hu: 17% 23% 43%  3%  2%  2%  3%  3%  3%
[libx264 @ 0x340c1c0] i4 v,h,dc,ddl,ddr,vr,hd,vl,hu: 14% 22% 11% 10% 10%  7% 11%  6% 10%
[libx264 @ 0x340c1c0] i8c dc,h,v,p: 79% 10% 10%  1%
[libx264 @ 0x340c1c0] Weighted P-Frames: Y:0.7% UV:0.0%
[libx264 @ 0x340c1c0] ref P L0: 81.2% 18.8%
[libx264 @ 0x340c1c0] ref B L0: 88.0% 12.0%
[libx264 @ 0x340c1c0] ref B L1: 97.0%  3.0%
[libx264 @ 0x340c1c0] kb/s:6842.76
